<svg width="512" height="512" viewBox="0 0 512 512" fill="none" xmlns="http://www.w3.org/2000/svg">
  <rect width="512" height="512" rx="132" fill="url(#bg)"/>
  <g filter="url(#shadow)">
    <rect x="64" y="64" width="384" height="384" rx="108" fill="white" fill-opacity="0.12"/>
    <rect x="64.75" y="64.75" width="382.5" height="382.5" rx="107.25" stroke="white" stroke-opacity="0.2" stroke-width="1.5"/>
  </g>
  <rect x="128" y="128" width="220" height="36" rx="18" fill="white" fill-opacity="0.9"/>
  <rect x="128" y="194" width="176" height="28" rx="14" fill="white" fill-opacity="0.58"/>
  <rect x="128" y="248" width="140" height="28" rx="14" fill="white" fill-opacity="0.42"/>
  <g filter="url(#glass)">
    <path d="M320 292C320 266.49 340.49 246 366 246H372C415.078 246 450 280.922 450 324V330C450 373.078 415.078 408 372 408H366C340.49 408 320 387.51 320 362V292Z" fill="url(#orb)"/>
    <path d="M352 312C352 304.268 358.268 298 366 298H372C389.673 298 404 312.327 404 330C404 347.673 389.673 362 372 362H366C358.268 362 352 355.732 352 348V312Z" fill="white" fill-opacity="0.92"/>
  </g>
  <circle cx="391" cy="286" r="22" fill="white" fill-opacity="0.28"/>
  <defs>
    <linearGradient id="bg" x1="65" y1="34" x2="444" y2="471" gradientUnits="userSpaceOnUse">
      <stop stop-color="#7DD3FC"/>
      <stop offset="0.38" stop-color="#2563EB"/>
      <stop offset="1" stop-color="#FB7185"/>
    </linearGradient>
    <radialGradient id="orb" cx="0" cy="0" r="1" gradientUnits="userSpaceOnUse" gradientTransform="translate(385 290) rotate(93.07) scale(125.078 104.348)">
      <stop stop-color="#FDF2F8"/>
      <stop offset="0.56" stop-color="#7DD3FC"/>
      <stop offset="1" stop-color="#2563EB"/>
    </radialGradient>
    <filter id="shadow" x="36" y="40" width="440" height="440" filterUnits="userSpaceOnUse" color-interpolation-filters="sRGB">
      <feFlood flood-opacity="0" result="BackgroundImageFix"/>
      <feColorMatrix in="SourceAlpha" type="matrix" values="0 0 0 0 0 0 0 0 0 0 0 0 0 0 0 0 0 0 127 0" result="hardAlpha"/>
      <feOffset dy="12"/>
      <feGaussianBlur stdDeviation="14"/>
      <feComposite in2="hardAlpha" operator="out"/>
      <feColorMatrix type="matrix" values="0 0 0 0 0.0196078 0 0 0 0 0.027451 0 0 0 0 0.0705882 0 0 0 0.38 0"/>
      <feBlend mode="normal" in2="BackgroundImageFix" result="effect1_dropShadow_0_1"/>
      <feBlend mode="normal" in="SourceGraphic" in2="effect1_dropShadow_0_1" result="shape"/>
    </filter>
    <filter id="glass" x="300" y="226" width="170" height="202" filterUnits="userSpaceOnUse" color-interpolation-filters="sRGB">
      <feFlood flood-opacity="0" result="BackgroundImageFix"/>
      <feGaussianBlur in="BackgroundImageFix" stdDeviation="10"/>
      <feComposite in2="SourceAlpha" operator="in" result="effect1_backgroundBlur_0_1"/>
      <feBlend mode="normal" in="SourceGraphic" in2="effect1_backgroundBlur_0_1" result="shape"/>
    </filter>
  </defs>
</svg>
