<svg width="512" height="512" viewBox="0 0 512 512" fill="none" xmlns="http://www.w3.org/2000/svg">
  <rect width="512" height="512" rx="132" fill="url(#bg)"/>
  <rect x="56" y="56" width="400" height="400" rx="104" fill="white" fill-opacity="0.12" stroke="white" stroke-opacity="0.24"/>
  <path d="M154 174C154 160.745 164.745 150 178 150H334C347.255 150 358 160.745 358 174C358 187.255 347.255 198 334 198H178C164.745 198 154 187.255 154 174Z" fill="white" fill-opacity="0.78"/>
  <path d="M154 256C154 242.745 164.745 232 178 232H290C303.255 232 314 242.745 314 256C314 269.255 303.255 280 290 280H178C164.745 280 154 269.255 154 256Z" fill="white" fill-opacity="0.56"/>
  <path d="M154 338C154 324.745 164.745 314 178 314H256C269.255 314 280 324.745 280 338C280 351.255 269.255 362 256 362H178C164.745 362 154 351.255 154 338Z" fill="white" fill-opacity="0.42"/>
  <circle cx="370" cy="338" r="48" fill="url(#orb)"/>
  <defs>
    <linearGradient id="bg" x1="65" y1="34" x2="444" y2="471" gradientUnits="userSpaceOnUse">
      <stop stop-color="#7DD3FC"/>
      <stop offset="0.46" stop-color="#3B82F6"/>
      <stop offset="1" stop-color="#EC4899"/>
    </linearGradient>
    <radialGradient id="orb" cx="0" cy="0" r="1" gradientUnits="userSpaceOnUse" gradientTransform="translate(370 338) rotate(90) scale(48)">
      <stop stop-color="white"/>
      <stop offset="1" stop-color="white" stop-opacity="0.18"/>
    </radialGradient>
  </defs>
</svg>
